<svg xmlns="http://www.w3.org/2000/svg" xmlns:xlink="http://www.w3.org/1999/xlink" xmlns:lucid="lucid" width="136" height="142"><g transform="translate(-423 -206)" lucid:page-tab-id="3T_vJ0FTodKF"><path d="M0 0h1870.87v1322.83H0z" fill="#fff"/><path d="M440 325.72h34.23v5.76H440v-5.76zM508.57 325.72h34.23v5.76h-34.23v-5.76zM488.57 306.88h5.67v7.44h-5.67v-7.44zM500.22 317.08h-17.94c-2.9 0-5.37 2.88-5.37 5.76v11.4c0 2.88 2.28 5.76 5.38 5.76h17.94c2.9 0 5.46-2.88 5.46-5.76v-11.4c0-2.88-2.57-5.76-5.46-5.76zm-.2 17.16H482.9v-11.4H500v11.4z" stroke="#000" stroke-opacity="0" fill="#2a3282"/><path d="M504.24 220c-4.23 0-6.8 1.44-9.07 3.72l-8.56 9.72c-.6.6-1.75 1.08-2.36 1.08h-35.9c-4.63 0-8.34 3.72-8.34 8.28v57.48c0 4.56 3.7 8.28 8.35 8.28h86.52c4.53 0 8.24-3.72 8.24-8.28v-61.92c0-3.24-1.74-6.96-3.7-9.24l-5.67-5.4c-2.27-2.28-5.15-3.72-9.18-3.72h-20.3z" stroke="#000" stroke-opacity="0" fill="#2a3282"/><path d="M371.56 246c0-3.3 2.68-6 6-6h228c3.3 0 6 2.7 6 6v48c0 3.3-2.7 6-6 6h-228c-3.32 0-6-2.7-6-6z" stroke="#000" stroke-opacity="0" stroke-width="3" fill="#fff" fill-opacity="0"/><use xlink:href="#a" transform="matrix(1,0,0,1,376.5571107223194,245) translate(74.38271604938271 30.27777777777778)"/><defs><path fill="#fff" d="M169-182c-1-43-94-46-97-3 18 66 151 10 154 114 3 95-165 93-204 36-6-8-10-19-12-30l50-8c3 46 112 56 116 5-17-69-150-10-154-114-4-87 153-88 188-35 5 8 8 18 10 28" id="b"/><path fill="#fff" d="M199 0l-22-63H83L61 0H9l90-248h61L250 0h-51zm-33-102l-36-108c-10 38-24 72-36 108h72" id="c"/><path fill="#fff" d="M230 0l2-204L168 0h-37L68-204 70 0H24v-248h70l56 185 57-185h69V0h-46" id="d"/><path fill="#fff" d="M182-130c37 4 62 22 62 59C244 23 116-4 24 0v-248c84 5 203-23 205 63 0 31-19 50-47 55zM76-148c40-3 101 13 101-30 0-44-60-28-101-31v61zm0 110c48-3 116 14 116-37 0-48-69-32-116-35v72" id="e"/><g id="a"><use transform="matrix(0.06172839506172839,0,0,0.06172839506172839,0,0)" xlink:href="#b"/><use transform="matrix(0.06172839506172839,0,0,0.06172839506172839,14.814814814814813,0)" xlink:href="#c"/><use transform="matrix(0.06172839506172839,0,0,0.06172839506172839,30.80246913580247,0)" xlink:href="#d"/><use transform="matrix(0.06172839506172839,0,0,0.06172839506172839,49.25925925925925,0)" xlink:href="#e"/><use transform="matrix(0.06172839506172839,0,0,0.06172839506172839,65.24691358024691,0)" xlink:href="#c"/></g></defs></g></svg>